<?xml version="1.0" encoding="utf-8"?>
<!-- Generator: Adobe Illustrator 22.0.1, SVG Export Plug-In . SVG Version: 6.00 Build 0)  -->
<svg version="1.1" id="Layer_1" xmlns="http://www.w3.org/2000/svg" xmlns:xlink="http://www.w3.org/1999/xlink" x="0px" y="0px"
	 viewBox="0 0 250 250" style="enable-background:new 0 0 250 250;" xml:space="preserve">
<style type="text/css">
	.st0{fill:#D6D6D6;}
	.st1{fill:#F4ABC9;}
	.st2{fill:none;}
	.st3{fill:#005FA0;}
	.st4{fill:#070C3A;}
</style>
<g>
	<g>
		<path class="st0" d="M176.2,204.1l33.8-33.8c0.2-0.4,0.5-0.9,0.7-1.3l-35.6,35.6C175.5,204.5,175.8,204.3,176.2,204.1z"/>
		<path class="st0" d="M164.2,208.5l52.6-52.6c0.1-0.3,0.2-0.6,0.3-0.9l-53.7,53.7C163.8,208.6,164,208.6,164.2,208.5z"/>
		<path class="st0" d="M155.7,209.5l64.6-64.6c0.1-0.2,0.1-0.5,0.2-0.7l-65.4,65.4C155.3,209.5,155.5,209.5,155.7,209.5z"/>
		<path class="st0" d="M148.8,208.8l73.3-73.3c0-0.2,0.1-0.4,0.1-0.6l-73.8,73.8C148.5,208.7,148.6,208.8,148.8,208.8z"/>
		<path class="st0" d="M142.7,207.2l80-80.1c0-0.2,0-0.4,0-0.6L142.2,207C142.4,207.1,142.6,207.2,142.7,207.2z"/>
		<path class="st0" d="M137.1,205.1l85.5-85.5c0-0.2,0-0.4,0-0.5L136.7,205C136.8,205,137,205.1,137.1,205.1z"/>
		<path class="st0" d="M131.8,202.8l90-90c0-0.2-0.1-0.3-0.1-0.5l-90.3,90.3C131.5,202.7,131.7,202.8,131.8,202.8z"/>
		<path class="st0" d="M126.7,200.4l93.8-93.8c0-0.1-0.1-0.3-0.1-0.4l-94.1,94.1C126.4,200.2,126.6,200.3,126.7,200.4z"/>
		<path class="st0" d="M121.7,197.8l97.1-97.1c0-0.1-0.1-0.3-0.1-0.4l-97.3,97.3C121.4,197.6,121.6,197.7,121.7,197.8z"/>
		<path class="st0" d="M116.7,195.1l99.9-99.9c-0.1-0.1-0.1-0.3-0.2-0.4l-100,100.1C116.5,195,116.6,195.1,116.7,195.1z"/>
		<path class="st0" d="M111.8,192.4L214.1,90.2c-0.1-0.1-0.1-0.2-0.2-0.4L111.5,192.2C111.6,192.3,111.7,192.4,111.8,192.4z"/>
		<path class="st0" d="M106.9,189.7L211.2,85.4c-0.1-0.1-0.2-0.2-0.2-0.3L106.5,189.5C106.7,189.6,106.8,189.7,106.9,189.7z"/>
		<path class="st0" d="M102,187L208,80.9c-0.1-0.1-0.2-0.2-0.2-0.3L101.6,186.8C101.7,186.8,101.8,186.9,102,187z"/>
		<path class="st0" d="M97.1,184.3L204.6,76.8c-0.1-0.1-0.2-0.2-0.3-0.3L96.7,184C96.8,184.1,97,184.2,97.1,184.3z"/>
		<path class="st0" d="M92.2,181.5L200.9,72.9c-0.1-0.1-0.2-0.2-0.3-0.3L91.9,181.3C92,181.4,92.1,181.5,92.2,181.5z"/>
		<path class="st0" d="M87.4,178.8L196.9,69.2c-0.1-0.1-0.2-0.2-0.3-0.3L87,178.6C87.1,178.6,87.3,178.7,87.4,178.8z"/>
		<path class="st0" d="M82.6,176L192.7,65.8c-0.1-0.1-0.2-0.2-0.3-0.2L82.2,175.8C82.3,175.8,82.5,175.9,82.6,176z"/>
		<path class="st0" d="M77.8,173.2L188.3,62.7c-0.1-0.1-0.2-0.1-0.3-0.2L77.5,172.9C77.6,173,77.7,173.1,77.8,173.2z"/>
		<path class="st0" d="M73.1,170.3L183.6,59.8c-0.1-0.1-0.2-0.1-0.4-0.2L72.8,170C72.9,170.1,73,170.2,73.1,170.3z"/>
		<path class="st0" d="M68.4,167.2L178.6,57.1c-0.1-0.1-0.2-0.1-0.4-0.2L68.1,167C68.2,167,68.3,167.1,68.4,167.2z"/>
		<path class="st0" d="M64,164L173.4,54.7c-0.1-0.1-0.3-0.1-0.4-0.2L63.7,163.8C63.8,163.9,63.9,164,64,164z"/>
		<path class="st0" d="M59.7,160.7L168,52.5c-0.1-0.1-0.3-0.1-0.4-0.2L59.4,160.5C59.5,160.5,59.6,160.6,59.7,160.7z"/>
		<path class="st0" d="M55.7,157.1L162.3,50.6c-0.1,0-0.3-0.1-0.4-0.1L55.5,156.8C55.5,156.9,55.6,157,55.7,157.1z"/>
		<path class="st0" d="M52.1,153.2L156.3,49c-0.2,0-0.3-0.1-0.5-0.1l-104,104C51.9,153,52,153.1,52.1,153.2z"/>
		<path class="st0" d="M48.9,148.8L150,47.7c-0.2,0-0.3-0.1-0.5-0.1L48.7,148.4C48.7,148.5,48.8,148.7,48.9,148.8z"/>
		<path class="st0" d="M46.3,143.8l97.1-97.1c-0.2,0-0.3,0-0.5-0.1l-96.8,96.8C46.1,143.6,46.2,143.7,46.3,143.8z"/>
		<path class="st0" d="M44.3,138.1l91.9-91.9c-0.2,0-0.4,0-0.5,0l-91.5,91.5C44.2,137.8,44.2,137.9,44.3,138.1z"/>
		<path class="st0" d="M43.1,131.7l85.6-85.6c-0.2,0-0.4,0-0.6,0l-85,85C43,131.3,43,131.5,43.1,131.7z"/>
		<path class="st0" d="M120.4,46.7c-0.2,0-0.4,0-0.6,0.1l-77,77c0,0.2,0,0.4,0,0.6L120.4,46.7z"/>
		<path class="st0" d="M110.7,48.3L44,115c0,0.2-0.1,0.5-0.2,0.7l67.6-67.6C111.1,48.2,110.9,48.3,110.7,48.3z"/>
		<path class="st0" d="M99.9,51.5l-52.8,52.8c-0.1,0.3-0.2,0.6-0.3,0.9l54-54C100.5,51.3,100.2,51.4,99.9,51.5z"/>
		<path class="st0" d="M85,58.7L54.7,89.1c-0.3,0.5-0.6,1-0.9,1.5l32.7-32.7C86,58.1,85.5,58.4,85,58.7z"/>
	</g>
	<path class="st1" d="M162.3,70.1c-3.6,0-7.3,0.5-10.6,1.4c-7.1-20.4-26.6-34.8-49.2-34.8c-28.9,0-52.1,23.3-52.3,52.1
		c-0.8,0-1.4-0.2-2.1-0.2c-18.1,0-32.8,14.7-32.8,32.8s14.7,32.8,32.8,32.8h114.3c23.3,0,42.1-18.8,42.1-42.1S185.6,70.1,162.3,70.1
		z M128.1,101.7c-0.8,0.8-1.7,1.1-2.7,1.1s-2-0.3-2.7-1.1l-17.9-17.9V132c0,2.1-1.7,3.8-3.8,3.8s-3.8-1.7-3.8-3.8V83.8l-17.9,17.9
		c-1.5,1.5-4,1.5-5.3,0c-1.5-1.5-1.5-4,0-5.3L98.3,72c0.2-0.2,0.3-0.3,0.6-0.5c0,0,0.2,0,0.2-0.2c0.2-0.2,0.3-0.2,0.5-0.3
		c0.2,0,0.2,0,0.3-0.2c0.2,0,0.3-0.2,0.5-0.2c0.3,0,0.5,0,0.8,0s0.5,0,0.8,0c0.2,0,0.3,0.2,0.5,0.2s0.2,0,0.3,0.2
		c0.2,0,0.3,0.2,0.5,0.3c0,0,0.2,0,0.2,0.2c0.2,0.2,0.5,0.3,0.6,0.5l24.5,24.5C129.6,97.8,129.6,100.2,128.1,101.7z"/>
	<g>
		<path class="st2" d="M182.1,149.3h0.8c1.1,0,1.8,0.9,1.8,1.8v11.1h8.8v-11.1c0-1.1,0.9-1.8,1.8-1.8h11.1v-8.8h-11.1
			c-0.6,0-1.1-0.3-1.4-0.6C190.7,143.7,186.6,146.9,182.1,149.3z"/>
		<path class="st2" d="M147.4,199c0,5.8,4.7,10.5,10.5,10.5h62.6c5.8,0,10.5-4.7,10.5-10.5v-6.2h-83.6V199z M189.2,196.9
			c2.4,0,4.3,2,4.3,4.3c0,2.4-2,4.3-4.3,4.3s-4.3-2-4.3-4.3S186.8,196.9,189.2,196.9z"/>
		<path class="st2" d="M197.4,135.5v1.2h11.1c1.1,0,1.8,0.9,1.8,1.8v12.6c0,1.1-0.9,1.8-1.8,1.8h-11.1v11.4c0,1.1-0.9,1.8-1.8,1.8
			H183c-1.1,0-1.8-0.9-1.8-1.8v-11.1h-9c-3,0.8-6.4,1.1-9.6,1.1h-15.2v34.8H231V101h-28.1c1.1,3.6,1.5,7.4,1.5,11.4
			C204.4,120.9,201.8,128.8,197.4,135.5z"/>
		<path class="st2" d="M201.7,97H231v-6.2c0-5.8-4.7-10.5-10.5-10.5H190C195.1,84.9,199.1,90.7,201.7,97z"/>
		<path class="st3" d="M220.5,76.7h-35.7c1.8,1.1,3.5,2.4,5.2,3.8h30.5c5.8,0,10.5,4.7,10.5,10.5v6.2h-29.3c0.5,1.2,0.9,2.4,1.2,3.8
			H231v88.1h-83.6v-34.8h-3.8V199c0,7.9,6.4,14.3,14.3,14.3h62.6c7.9,0,14.3-6.4,14.3-14.3V90.8C234.8,83.1,228.4,76.7,220.5,76.7z
			 M231,199c0,5.8-4.7,10.5-10.5,10.5h-62.6c-5.8,0-10.5-4.7-10.5-10.5v-6.2H231V199z"/>
		<circle class="st3" cx="189.2" cy="201.1" r="4.3"/>
		<path class="st3" d="M181,164.4c0,1.1,0.9,1.8,1.8,1.8h12.6c1.1,0,1.8-0.9,1.8-1.8v-11.1h11.1c1.1,0,1.8-0.9,1.8-1.8v-12.6
			c0-1.1-0.9-1.8-1.8-1.8h-11.1v-1.5c-1.1,1.5-2.1,3-3.3,4.4c0.3,0.5,0.9,0.6,1.4,0.6h11.1v8.8h-11.1c-1.1,0-1.8,0.9-1.8,1.8v11.1
			h-8.8v-11.1c0-1.1-0.9-1.8-1.8-1.8h-0.8c-3.2,1.7-6.5,2.9-10.2,3.8h9v11.2L181,164.4L181,164.4z"/>
		<path class="st4" d="M147.4,100.8h55.5c-0.3-1.4-0.8-2.6-1.2-3.8h-54.3v-6.2c0-5.8,4.7-10.5,10.5-10.5H190
			c-1.7-1.4-3.3-2.7-5.2-3.8h-26.9c-7.9,0-14.3,6.4-14.3,14.3v63.4h3.8L147.4,100.8L147.4,100.8z"/>
		<path class="st4" d="M171.7,149.3v-8.8h11.1c1.1,0,1.8-0.9,1.8-1.8v-11.1h8.8v11.1c0,0.5,0.2,0.9,0.5,1.2c1.2-1.4,2.3-2.9,3.3-4.4
			v-9.9c0-1.1-0.9-1.8-1.8-1.8h-12.6c-1.1,0-1.8,0.9-1.8,1.8v11.1h-11.1c-1.1,0-1.8,0.9-1.8,1.8v12.6c0,1.1,0.9,1.8,1.8,1.8h2.1
			c3.5-0.9,7-2.1,10.2-3.8h-10.5V149.3z"/>
	</g>
</g>
</svg>
