<?xml version="1.0" encoding="utf-8"?>
<!-- Generator: Adobe Illustrator 22.0.1, SVG Export Plug-In . SVG Version: 6.00 Build 0)  -->
<svg version="1.1" id="Layer_1" xmlns="http://www.w3.org/2000/svg" xmlns:xlink="http://www.w3.org/1999/xlink" x="0px" y="0px"
	 viewBox="0 0 250 250" style="enable-background:new 0 0 250 250;" xml:space="preserve">
<style type="text/css">
	.st0{fill:#D6D6D6;}
	.st1{fill:#80D6CC;}
	.st2{fill:none;}
	.st3{fill:#DF711E;}
	.st4{fill:#72340A;}
</style>
<g>
	<g>
		<path class="st0" d="M55.2,72.8L23,104.9c-0.1,0.3-0.2,0.6-0.3,0.8l33.6-33.6C56,72.4,55.6,72.6,55.2,72.8z"/>
		<path class="st0" d="M69.1,66.5l-47.7,47.7c0,0.2,0,0.4,0,0.6L70,66.1C69.7,66.2,69.4,66.4,69.1,66.5z"/>
		<path class="st0" d="M81,62.2l-59.5,59.5c0,0.2,0,0.3,0,0.5l60.3-60.3C81.5,62,81.3,62.1,81,62.2z"/>
		<path class="st0" d="M92,58.8l-69.4,69.4c0,0.2,0.1,0.3,0.1,0.5l70.1-70.1C92.5,58.6,92.2,58.7,92,58.8z"/>
		<path class="st0" d="M102.4,55.9L24.3,134c0.1,0.1,0.1,0.3,0.2,0.4l78.7-78.7C102.9,55.8,102.7,55.9,102.4,55.9z"/>
		<path class="st0" d="M112.5,53.4l-85.8,85.8c0.1,0.1,0.1,0.2,0.2,0.4l86.3-86.3C113,53.3,112.8,53.4,112.5,53.4z"/>
		<path class="st0" d="M122.5,51.1l-92.7,92.8c0.1,0.1,0.2,0.2,0.2,0.3L123.2,51C123,51,122.7,51.1,122.5,51.1z"/>
		<path class="st0" d="M132.4,48.8L33.2,148c0.1,0.1,0.2,0.2,0.3,0.3l99.6-99.6C132.9,48.7,132.7,48.8,132.4,48.8z"/>
		<path class="st0" d="M141.6,47.3L37.1,151.7c0.1,0.1,0.2,0.2,0.3,0.3L142.3,47.2C142.1,47.2,141.8,47.2,141.6,47.3z"/>
		<path class="st0" d="M150,46.5L41.4,155.1c0.1,0.1,0.2,0.2,0.3,0.2L150.5,46.5C150.4,46.5,150.2,46.5,150,46.5z"/>
		<path class="st0" d="M157.6,46.5L46,158.1c0.1,0.1,0.2,0.1,0.4,0.2L158.2,46.5C158,46.5,157.8,46.5,157.6,46.5z"/>
		<path class="st0" d="M164.7,47L50.8,160.9c0.1,0.1,0.2,0.1,0.4,0.2l114-114C165.1,47,164.9,47,164.7,47z"/>
		<path class="st0" d="M171.3,48L55.9,163.4c0.1,0.1,0.3,0.1,0.4,0.2L171.8,48C171.6,48,171.5,48,171.3,48z"/>
		<path class="st0" d="M177.5,49.4L61.1,165.8c0.1,0.1,0.3,0.1,0.4,0.2L178,49.5C177.8,49.5,177.7,49.4,177.5,49.4z"/>
		<path class="st0" d="M183.4,51.2L66.3,168.3c0.1,0.1,0.3,0.1,0.4,0.2L183.8,51.4C183.7,51.3,183.5,51.3,183.4,51.2z"/>
		<path class="st0" d="M188.8,53.4L71.3,170.9c0.1,0.1,0.2,0.1,0.4,0.2L189.2,53.6C189.1,53.5,188.9,53.5,188.8,53.4z"/>
		<path class="st0" d="M193.8,56L76.3,173.5c0.1,0.1,0.2,0.1,0.4,0.2L194.2,56.2C194.1,56.1,194,56,193.8,56z"/>
		<path class="st0" d="M198.6,58.9L81.2,176.2c0.1,0.1,0.2,0.1,0.4,0.2L198.9,59.1C198.8,59,198.7,58.9,198.6,58.9z"/>
		<path class="st0" d="M202.9,62.1L86.1,178.9c0.1,0.1,0.2,0.1,0.4,0.2L203.2,62.3C203.1,62.3,203,62.2,202.9,62.1z"/>
		<path class="st0" d="M207,65.6l-116,116c0.1,0.1,0.2,0.1,0.4,0.2L207.3,65.9C207.2,65.8,207.1,65.7,207,65.6z"/>
		<path class="st0" d="M210.7,69.5L95.9,184.3c0.1,0.1,0.2,0.1,0.4,0.2L211,69.8C210.9,69.7,210.8,69.6,210.7,69.5z"/>
		<path class="st0" d="M214.2,73.8L101,187c0.1,0.1,0.2,0.1,0.4,0.2l113-113.1C214.3,74,214.3,73.9,214.2,73.8z"/>
		<path class="st0" d="M217.2,78.3L105.9,189.6c0.1,0.1,0.2,0.1,0.4,0.2L217.4,78.7C217.4,78.6,217.3,78.5,217.2,78.3z"/>
		<path class="st0" d="M219.9,83.2L111,192.2c0.1,0.1,0.3,0.1,0.4,0.2L220.1,83.6C220,83.5,220,83.4,219.9,83.2z"/>
		<path class="st0" d="M222.2,88.5L116.1,194.6c0.1,0.1,0.3,0.1,0.4,0.2L222.4,88.9C222.4,88.8,222.3,88.6,222.2,88.5z"/>
		<path class="st0" d="M224.2,94.2L121.4,196.9c0.1,0.1,0.3,0.1,0.4,0.2L224.3,94.6C224.3,94.5,224.2,94.3,224.2,94.2z"/>
		<path class="st0" d="M225.7,100.2l-98.9,98.9c0.1,0.1,0.3,0.1,0.4,0.2l98.5-98.5C225.8,100.6,225.7,100.4,225.7,100.2z"/>
		<path class="st0" d="M226.8,106.8L132.5,201c0.1,0,0.3,0.1,0.4,0.1l93.9-93.9C226.8,107.1,226.8,106.9,226.8,106.8z"/>
		<path class="st0" d="M227.4,113.9l-88.7,88.7c0.2,0,0.3,0.1,0.5,0.1l88.3-88.3C227.4,114.3,227.4,114.1,227.4,113.9z"/>
		<path class="st0" d="M145.1,203.8c0.2,0,0.3,0,0.5,0.1l81.7-81.7c0-0.2,0-0.4,0-0.6L145.1,203.8z"/>
		<path class="st0" d="M152.7,204.3l74-74c0-0.2,0.1-0.4,0.1-0.6l-74.7,74.7C152.3,204.3,152.5,204.3,152.7,204.3z"/>
		<path class="st0" d="M160.6,204.1l64.7-64.7c0.1-0.2,0.1-0.5,0.2-0.7L160,204.2C160.1,204.1,160.3,204.1,160.6,204.1z"/>
		<path class="st0" d="M169.6,202.6l52.9-52.9c0.1-0.3,0.2-0.6,0.3-0.8l-53.9,53.9C169.1,202.8,169.4,202.7,169.6,202.6z"/>
		<path class="st0" d="M181.1,198.8l36.1-36.1c0.2-0.4,0.4-0.7,0.6-1.1l-37.7,37.7C180.4,199.1,180.7,198.9,181.1,198.8z"/>
	</g>
	<rect x="21.3" y="81" class="st1" width="39.1" height="110.9"/>
	<rect x="68.8" y="39.2" class="st1" width="39.1" height="152.7"/>
	<rect x="116.3" y="99.5" class="st1" width="39.1" height="92.4"/>
	<g>
		<path class="st2" d="M182.2,162.3c0-2.4-0.8-4.4-2.1-5.9c-1.4-1.5-3.5-2.9-6.2-4.1c-1.7-0.8-4.1-1.7-6.8-2.6v24.9
			c4.7-0.3,8.4-1.4,10.8-3.2C180.8,169.1,182.2,166.1,182.2,162.3z"/>
		<path class="st2" d="M161.4,147.9c-2.3-0.8-4.3-1.5-6.1-2.1v27.7c1.8,0.6,3.8,1.1,6.1,1.2V147.9z"/>
		<path class="st2" d="M155.9,139.5c1.5,0.6,3.3,1.4,5.6,2.3v-23.9c-2.3,0.2-4.3,0.6-6.1,1.4v19.9
			C155.6,139.4,155.8,139.4,155.9,139.5z"/>
		<path class="st2" d="M107.9,123.6v45.3c2.1,5.3,5,10.2,8.5,14.7V109C112.9,113.4,110,118.4,107.9,123.6z"/>
		<path class="st2" d="M155.3,113.4c1.8-0.5,4-0.9,6.1-1.1v-8.8c0-1.1,0.8-1.8,1.8-1.8h1.8c1.1,0,1.8,0.8,1.8,1.8v8.8
			c3.3,0.3,6.4,1.1,9,2.4c3.3,1.7,5.9,3.8,7.6,6.4c1.7,2.6,2.6,5.2,2.7,7.8c0,0.5-0.2,0.9-0.5,1.4c-0.3,0.3-0.9,0.6-1.5,0.6h-1.8
			c-0.5,0-0.9-0.2-1.4-0.5s-0.8-0.8-0.8-1.5c-0.3-3.2-2.1-5.8-5-7.8c-2.3-1.5-5-2.6-8.2-2.9v25.5c0.2,0,0.2,0,0.3,0.2
			c5.2,1.7,9.3,3.2,12.2,4.7s5.2,3.3,6.5,5.5c1.5,2.1,2.3,4.9,2.3,8.4c0,5.6-2.1,10.2-6.4,13.2c-3.8,2.7-8.7,4.4-14.9,4.7v8.7
			c0,1.1-0.8,1.8-1.8,1.8h-1.8c-1.1,0-1.8-0.8-1.8-1.8v-8.8c-2.1-0.2-4.3-0.5-6.1-1.1V192h-31.3c10.6,9.4,24.8,15.2,40.1,15.2
			c33.6,0,60.8-27.2,60.8-60.8s-27.2-60.8-60.8-60.8c-14.7,0-28.3,5.3-38.9,14.1h29.9L155.3,113.4L155.3,113.4z"/>
		<path class="st3" d="M161.4,189.1c0,1.1,0.8,1.8,1.8,1.8h1.8c1.1,0,1.8-0.8,1.8-1.8v-8.7c6.2-0.3,11.1-1.8,14.9-4.7
			c4.3-3.2,6.4-7.6,6.4-13.2c0-3.3-0.8-6.2-2.3-8.4c-1.5-2.1-3.6-4-6.5-5.5s-7-3-12.2-4.7c-0.2,0-0.2,0-0.3-0.2v-25.5
			c3.2,0.3,5.9,1.4,8.2,2.9c3,2,4.7,4.7,5,7.8c0,0.8,0.3,1.2,0.8,1.5s0.9,0.5,1.4,0.5h1.8c0.6,0,1.1-0.2,1.5-0.6
			c0.3-0.3,0.5-0.8,0.5-1.4c-0.2-2.6-1.1-5.2-2.7-7.8c-1.7-2.6-4.3-4.7-7.6-6.4c-2.6-1.4-5.6-2.1-9-2.4v-8.8c0-1.1-0.8-1.8-1.8-1.8
			h-1.8c-1.1,0-1.8,0.8-1.8,1.8v8.8c-2.1,0.2-4.3,0.5-6.1,1.1v5.9c1.8-0.6,3.8-1.1,6.1-1.4v23.7c-2.3-0.8-4.1-1.5-5.6-2.3
			c-0.2-0.2-0.3-0.2-0.5-0.3v6.7c1.8,0.8,3.8,1.5,6.1,2.1v26.7c-2.3-0.2-4.3-0.6-6.1-1.2v5.9c1.8,0.5,4,0.9,6.1,1.1v8.7L161.4,189.1
			L161.4,189.1z M167,149.9c2.9,1.1,5.2,1.8,6.8,2.6c2.7,1.2,4.7,2.6,6.2,4.1c1.4,1.5,2.1,3.5,2.1,5.9c0,4-1.5,7-4.4,9.1
			c-2.4,1.8-6.1,2.9-10.8,3.2L167,149.9L167,149.9z"/>
		<path class="st3" d="M107.9,169v8.8c2.4,4.3,5.2,8.2,8.5,11.9v-6.1C112.9,179.2,110,174.3,107.9,169z"/>
		<path class="st3" d="M164.3,81.6c-17.3,0-33,6.8-44.5,17.9h5.6c10.5-8.8,24.2-14.1,38.9-14.1c33.6,0,60.8,27.2,60.8,60.8
			S197.9,207,164.3,207c-15.3,0-29.3-5.8-40.1-15.2h-5.6c11.7,11.7,27.8,19,45.6,19c35.6,0,64.6-29,64.6-64.6S199.8,81.6,164.3,81.6
			z"/>
		<path class="st3" d="M116.3,109v-6c-3.2,3.6-6.1,7.6-8.5,11.9v8.8C110,118.4,112.9,113.4,116.3,109z"/>
		<path class="st4" d="M103.5,146.4c0-8.1,1.5-15.7,4.4-22.6V115c-5.2,9.3-8.2,20.1-8.2,31.5c0,11.4,3,22.2,8.2,31.5v-9
			C105,162,103.5,154.3,103.5,146.4z"/>
		<path class="st4" d="M151.4,171.3c-3-2.3-4.7-4.9-5.2-7.9c-0.3-1.2-0.9-1.8-2.1-1.8h-1.8c-0.6,0-1.1,0.2-1.4,0.6
			c-0.3,0.3-0.6,0.8-0.6,1.4c0.2,3,1.2,5.8,3,8.4c2,2.6,4.7,4.7,8.4,6.2c1.2,0.5,2.4,0.9,3.6,1.2v-5.9
			C153.9,172.8,152.6,172,151.4,171.3z"/>
		<path class="st4" d="M150,135.4c-1.4-1.7-2-3.6-2-6.1c0-3.8,1.4-6.7,4.3-8.5c0.9-0.6,1.8-1.1,2.9-1.4v-5.9c-1.1,0.3-2.1,0.6-3,1.1
			c-3.3,1.5-5.8,3.5-7.4,6.1c-1.7,2.6-2.6,5.5-2.6,8.7c0,3.3,0.6,6.2,2,8.4c1.4,2.3,3.3,4.1,6.1,5.6c1.4,0.8,3.2,1.5,5.2,2.4v-6.4
			C153,138.1,151.2,136.8,150,135.4z"/>
		<path class="st4" d="M116.3,183.6v5.9c0.8,0.8,1.5,1.7,2.3,2.4h5.6C121.3,189.4,118.7,186.6,116.3,183.6z"/>
		<path class="st4" d="M125.3,99.5h-5.6c-1.2,1.1-2.5,2.3-3.5,3.5l0.1,6C118.8,105.6,121.9,102.4,125.3,99.5z"/>
	</g>
</g>
</svg>
