<?xml version="1.0" encoding="utf-8"?>
<!-- Generator: Adobe Illustrator 22.0.1, SVG Export Plug-In . SVG Version: 6.00 Build 0)  -->
<svg version="1.1" id="Layer_1" xmlns="http://www.w3.org/2000/svg" xmlns:xlink="http://www.w3.org/1999/xlink" x="0px" y="0px"
	 viewBox="0 0 250 250" style="enable-background:new 0 0 250 250;" xml:space="preserve">
<style type="text/css">
	.st0{fill:#D6D6D6;}
	.st1{fill:#CBCE4A;}
	.st2{fill:none;}
	.st3{fill:#12838A;}
	.st4{opacity:0.8;fill:#07421A;enable-background:new    ;}
</style>
<g>
	<g>
		<path class="st0" d="M90.3,47.5L56.5,81.3c-0.2,0.4-0.5,0.9-0.7,1.3L91.4,47C91.1,47.1,90.7,47.3,90.3,47.5z"/>
		<path class="st0" d="M102.3,43.1L49.7,95.7c-0.1,0.3-0.2,0.6-0.3,0.9L103,42.9C102.8,43,102.5,43,102.3,43.1z"/>
		<path class="st0" d="M110.9,42.1l-64.6,64.6c-0.1,0.2-0.1,0.5-0.2,0.7L111.5,42C111.2,42.1,111.1,42.1,110.9,42.1z"/>
		<path class="st0" d="M117.7,42.8l-73.3,73.3c0,0.2-0.1,0.4-0.1,0.6l73.8-73.8C118.1,42.9,117.9,42.8,117.7,42.8z"/>
		<path class="st0" d="M123.8,44.4l-80,80.1c0,0.2,0,0.4,0,0.6l80.5-80.5C124.1,44.5,124,44.4,123.8,44.4z"/>
		<path class="st0" d="M129.5,46.5L43.9,132c0,0.2,0,0.4,0,0.5l85.9-85.9C129.7,46.6,129.6,46.5,129.5,46.5z"/>
		<path class="st0" d="M134.7,48.8l-90,90c0,0.2,0.1,0.3,0.1,0.5L135.1,49C135,48.9,134.9,48.8,134.7,48.8z"/>
		<path class="st0" d="M139.8,51.2L46,145.1c0,0.1,0.1,0.3,0.1,0.4l94.1-94.1C140.1,51.4,140,51.3,139.8,51.2z"/>
		<path class="st0" d="M144.9,53.8l-97.1,97.1c0,0.1,0.1,0.3,0.1,0.4L145.2,54C145.1,54,145,53.9,144.9,53.8z"/>
		<path class="st0" d="M149.8,56.5l-99.9,99.9c0.1,0.1,0.1,0.3,0.2,0.4L150.2,56.7C150,56.6,149.9,56.5,149.8,56.5z"/>
		<path class="st0" d="M154.7,59.2L52.5,161.4c0.1,0.1,0.1,0.2,0.2,0.4L155.1,59.4C155,59.3,154.8,59.2,154.7,59.2z"/>
		<path class="st0" d="M159.6,61.9L55.3,166.2c0.1,0.1,0.2,0.2,0.2,0.3L160,62.1C159.9,62,159.8,61.9,159.6,61.9z"/>
		<path class="st0" d="M164.6,64.6L58.5,170.7c0.1,0.1,0.2,0.2,0.2,0.3L164.9,64.8C164.8,64.8,164.7,64.7,164.6,64.6z"/>
		<path class="st0" d="M169.5,67.3L62,174.8c0.1,0.1,0.2,0.2,0.3,0.3L169.8,67.6C169.7,67.5,169.6,67.4,169.5,67.3z"/>
		<path class="st0" d="M174.3,70.1L65.7,178.7c0.1,0.1,0.2,0.2,0.3,0.3L174.7,70.3C174.6,70.2,174.4,70.1,174.3,70.1z"/>
		<path class="st0" d="M179.2,72.8L69.6,182.4c0.1,0.1,0.2,0.2,0.3,0.3L179.5,73C179.4,73,179.3,72.9,179.2,72.8z"/>
		<path class="st0" d="M184,75.6L73.8,185.8c0.1,0.1,0.2,0.2,0.3,0.2L184.3,75.8C184.2,75.8,184.1,75.7,184,75.6z"/>
		<path class="st0" d="M188.7,78.4L78.3,188.9c0.1,0.1,0.2,0.1,0.3,0.2L189.1,78.7C189,78.6,188.8,78.5,188.7,78.4z"/>
		<path class="st0" d="M193.4,81.3L83,191.8c0.1,0.1,0.2,0.1,0.4,0.2L193.8,81.6C193.7,81.5,193.5,81.4,193.4,81.3z"/>
		<path class="st0" d="M198.1,84.4L88,194.5c0.1,0.1,0.2,0.1,0.4,0.2l110-110.1C198.3,84.6,198.2,84.5,198.1,84.4z"/>
		<path class="st0" d="M202.5,87.6L93.2,196.9c0.1,0.1,0.3,0.1,0.4,0.2L202.9,87.8C202.8,87.7,202.7,87.6,202.5,87.6z"/>
		<path class="st0" d="M206.8,90.9L98.6,199.1c0.1,0.1,0.3,0.1,0.4,0.2L207.1,91.1C207,91.1,206.9,91,206.8,90.9z"/>
		<path class="st0" d="M210.8,94.5L104.3,201c0.1,0,0.3,0.1,0.4,0.1L211.1,94.8C211,94.7,210.9,94.6,210.8,94.5z"/>
		<path class="st0" d="M214.4,98.4L110.3,202.6c0.2,0,0.3,0.1,0.5,0.1l104-104C214.6,98.6,214.5,98.5,214.4,98.4z"/>
		<path class="st0" d="M217.6,102.8L116.5,203.9c0.2,0,0.3,0.1,0.5,0.1l100.8-100.8C217.8,103.1,217.7,102.9,217.6,102.8z"/>
		<path class="st0" d="M220.3,107.8l-97.1,97.1c0.2,0,0.3,0,0.5,0.1l96.8-96.8C220.4,108,220.3,107.9,220.3,107.8z"/>
		<path class="st0" d="M222.3,113.5l-91.9,91.9c0.2,0,0.4,0,0.5,0l91.5-91.5C222.4,113.8,222.3,113.7,222.3,113.5z"/>
		<path class="st0" d="M223.5,119.9l-85.6,85.6c0.2,0,0.4,0,0.6,0l85-85C223.5,120.3,223.5,120.1,223.5,119.9z"/>
		<path class="st0" d="M146.1,204.9c0.2,0,0.4,0,0.6-0.1l77-77c0-0.2,0-0.4,0-0.6L146.1,204.9z"/>
		<path class="st0" d="M155.9,203.3l66.7-66.7c0-0.2,0.1-0.5,0.2-0.7l-67.6,67.6C155.4,203.4,155.6,203.3,155.9,203.3z"/>
		<path class="st0" d="M166.6,200.1l52.8-52.8c0.1-0.3,0.2-0.6,0.3-0.9l-54,54C166,200.3,166.3,200.2,166.6,200.1z"/>
		<path class="st0" d="M181.5,192.9l30.3-30.3c0.3-0.5,0.6-1,0.9-1.5L180,193.7C180.5,193.5,181,193.2,181.5,192.9z"/>
	</g>
	<polygon class="st1" points="168.4,84 120.5,84 120.5,36.2 74.1,36.2 74.1,84 26.3,84 26.3,130.4 74.1,130.4 74.1,178.3 
		120.5,178.3 120.5,130.4 168.4,130.4 	"/>
	<path class="st2" d="M189.8,108.8c1.1,0,1.8,0.9,1.8,1.8s-0.9,1.8-1.8,1.8h-21.4v8.1h11.2c1.1,0,1.8,0.9,1.8,1.8s-0.9,1.8-1.8,1.8
		h-11.2v6.2h-47.9v47.9h-9.1v24.6c0,4,3.2,7.1,7.1,7.1h81c4,0,7.1-3.2,7.1-7.1V95c0-4-3.2-7.1-7.1-7.1h-12.6c0,4.4-3.6,7.9-7.9,7.9
		h-10.6v13.1L189.8,108.8z M138.7,175.5L127.9,186l-5.9-5.5c-0.8-0.8-0.8-2-0.2-2.7c0.8-0.8,2-0.8,2.7-0.2l3.3,3l8.2-7.9
		c0.8-0.8,2-0.8,2.7,0C139.5,173.6,139.5,174.8,138.7,175.5z M138.7,143.2l-10.8,10.5l-5.9-5.5c-0.8-0.8-0.8-2-0.2-2.7
		c0.8-0.8,2-0.8,2.7-0.2l3.3,3l8.2-7.9c0.8-0.8,2-0.8,2.7,0C139.5,141.2,139.5,142.4,138.7,143.2z M182.6,195.6h-35.7
		c-1.1,0-1.8-0.9-1.8-1.8c0-0.9,0.9-1.8,1.8-1.8h35.7c1.1,0,1.8,0.9,1.8,1.8C184.5,194.7,183.7,195.6,182.6,195.6z M189.8,183.7
		h-42.9c-1.1,0-1.8-0.9-1.8-1.8s0.9-1.8,1.8-1.8h42.9c1.1,0,1.8,0.9,1.8,1.8S190.8,183.7,189.8,183.7z M145,169.9
		c0-1.1,0.9-1.8,1.8-1.8h32.7c1.1,0,1.8,0.9,1.8,1.8c0,0.9-0.9,1.8-1.8,1.8H147C145.9,171.9,145,171,145,169.9z M189.8,160h-42.9
		c-1.1,0-1.8-0.9-1.8-1.8s0.9-1.8,1.8-1.8h42.9c1.1,0,1.8,0.9,1.8,1.8S190.8,160,189.8,160z M145,146.2c0-1.1,0.9-1.8,1.8-1.8h35.7
		c1.1,0,1.8,0.9,1.8,1.8s-0.9,1.8-1.8,1.8h-35.6C145.9,148.2,145,147.3,145,146.2z M189.8,136.3h-42.9c-1.1,0-1.8-0.9-1.8-1.8
		s0.9-1.8,1.8-1.8h42.9c1.1,0,1.8,0.9,1.8,1.8S190.8,136.3,189.8,136.3z"/>
	<path class="st2" d="M168.4,91.9H179c2.3,0,4.1-1.8,4.1-4.1V84c0-2.3-1.8-4.1-4.1-4.1h-39.8c-2.3,0-4.1,1.8-4.1,4.1l0,0h33.4v7.9
		H168.4z"/>
	<g>
		<path class="st3" d="M199.5,83.9h-12.6c0-4.4-3.6-7.9-7.9-7.9h-39.8c-4.4,0-7.9,3.5-7.9,7.9h-10.6V84h14.4l0,0
			c0-2.3,1.8-4.1,4.1-4.1H179c2.3,0,4.1,1.8,4.1,4.1v3.8c0,2.3-1.8,4.1-4.1,4.1h-10.6v3.8H179c4.4,0,7.9-3.5,7.9-7.9h12.6
			c4,0,7.1,3.2,7.1,7.1v107.9c0,4-3.2,7.1-7.1,7.1h-81c-4,0-7.1-3.2-7.1-7.1v-24.6h-3.8v24.6c0,6.1,5,10.9,10.9,10.9h81
			c6.1,0,10.9-5,10.9-10.9V95C210.6,88.9,205.6,83.9,199.5,83.9z"/>
		<path class="st3" d="M191.6,110.6c0-1.1-0.9-1.8-1.8-1.8h-21.4v3.8h21.4C190.8,112.6,191.6,111.7,191.6,110.6z"/>
		<path class="st3" d="M181.4,122.5c0-1.1-0.9-1.8-1.8-1.8h-11.2v3.8h11.2C180.7,124.5,181.4,123.6,181.4,122.5z"/>
		<path class="st3" d="M189.8,132.5h-42.9c-1.1,0-1.8,0.9-1.8,1.8s0.9,1.8,1.8,1.8h42.9c1.1,0,1.8-0.9,1.8-1.8
			S190.8,132.5,189.8,132.5z"/>
		<path class="st3" d="M146.9,148.2h35.7c1.1,0,1.8-0.9,1.8-1.8s-0.9-1.8-1.8-1.8h-35.7c-1.1,0-1.8,0.9-1.8,1.8
			S145.9,148.2,146.9,148.2z"/>
		<path class="st3" d="M189.8,156.2h-42.9c-1.1,0-1.8,0.9-1.8,1.8s0.9,1.8,1.8,1.8h42.9c1.1,0,1.8-0.9,1.8-1.8
			S190.8,156.2,189.8,156.2z"/>
		<path class="st3" d="M146.9,171.9h32.7c1.1,0,1.8-0.9,1.8-1.8s-0.9-1.8-1.8-1.8h-32.7c-1.1,0-1.8,0.9-1.8,1.8
			S145.9,171.9,146.9,171.9z"/>
		<path class="st3" d="M189.8,179.9h-42.9c-1.1,0-1.8,0.9-1.8,1.8s0.9,1.8,1.8,1.8h42.9c1.1,0,1.8-0.9,1.8-1.8
			S190.8,179.9,189.8,179.9z"/>
		<path class="st3" d="M182.6,191.8h-35.7c-1.1,0-1.8,0.9-1.8,1.8s0.9,1.8,1.8,1.8h35.7c1.1,0,1.8-0.9,1.8-1.8
			S183.7,191.8,182.6,191.8z"/>
		<path class="st3" d="M136.1,140.4l-8.2,7.9l-3.3-3c-0.8-0.8-2-0.6-2.7,0.2s-0.6,2,0.2,2.7l5.9,5.5l10.8-10.5c0.8-0.8,0.8-2,0-2.7
			C138.1,139.7,136.9,139.7,136.1,140.4z"/>
		<path class="st3" d="M136.1,172.8l-8.2,7.9l-3.3-3c-0.8-0.8-2-0.6-2.7,0.2s-0.6,2,0.2,2.7l5.9,5.5l10.8-10.5c0.8-0.8,0.8-2,0-2.7
			C138.1,172,136.9,172,136.1,172.8z"/>
	</g>
	<path class="st3" d="M111.4,95c0-4,3.2-7.1,7.1-7.1h12.6c0,4.4,3.6,7.9,7.9,7.9h29.2V92h-29c-2.3,0-4.1-1.8-4.1-4.1V84h-14.6h0h-2
		c-6.1,0-10.9,5-10.9,10.9v83.3h3.8L111.4,95z"/>
	<path class="st3" d="M146.9,108.8c-1.1,0-1.8,0.9-1.8,1.8s0.9,1.8,1.8,1.8h21.4v-3.8h-21.4V108.8z"/>
	<path class="st3" d="M146.9,120.7c-1.1,0-1.8,0.9-1.8,1.8s0.9,1.8,1.8,1.8h21.4v-3.8h-21.4V120.7z"/>
	<path class="st3" d="M136.1,108.1l-8.2,7.9l-3.3-3c-0.8-0.8-2-0.6-2.7,0.2s-0.6,2,0.2,2.7l5.9,5.5l10.8-10.5c0.8-0.8,0.8-2,0-2.7
		S136.9,107.3,136.1,108.1z"/>
	<g>
		<path class="st4" d="M111.4,95c0-4,3.2-7.1,7.1-7.1h12.6c0,4.4,3.6,7.9,7.9,7.9h29.4V92h-29.2c-2.3,0-4.1-1.8-4.1-4.1V84h-14.6h0
			h-2c-6.1,0-10.9,5-10.9,10.9v83.3h3.8L111.4,95z"/>
		<path class="st4" d="M146.9,108.8c-1.1,0-1.8,0.9-1.8,1.8s0.9,1.8,1.8,1.8h21.4v-3.8h-21.4V108.8z"/>
		<path class="st4" d="M146.9,120.7c-1.1,0-1.8,0.9-1.8,1.8s0.9,1.8,1.8,1.8h21.4v-3.8h-21.4V120.7z"/>
		<path class="st4" d="M136.1,108.1l-8.2,7.9l-3.3-3c-0.8-0.8-2-0.6-2.7,0.2s-0.6,2,0.2,2.7l5.9,5.5l10.8-10.5c0.8-0.8,0.8-2,0-2.7
			S136.9,107.3,136.1,108.1z"/>
	</g>
</g>
</svg>
